<?xml version="1.0" encoding="utf-8"?>
<!-- Generator: Adobe Illustrator 16.0.0, SVG Export Plug-In . SVG Version: 6.00 Build 0)  -->
<!DOCTYPE svg PUBLIC "-//W3C//DTD SVG 1.1//EN" "http://www.w3.org/Graphics/SVG/1.1/DTD/svg11.dtd">
<svg version="1.1" id="Layer_1" xmlns="http://www.w3.org/2000/svg" xmlns:xlink="http://www.w3.org/1999/xlink" x="0px" y="0px"
	 width="31.097px" height="31.096px" viewBox="0 0 31.097 31.096" enable-background="new 0 0 31.097 31.096" xml:space="preserve">
<g>
	<defs>
		<rect id="SVGID_1_" width="31.097" height="31.096"/>
	</defs>
	<clipPath id="SVGID_2_">
		<use xlink:href="#SVGID_1_"  overflow="visible"/>
	</clipPath>
	<g clip-path="url(#SVGID_2_)">
		<defs>
			<rect id="SVGID_3_" width="31.097" height="31.096"/>
		</defs>
		<clipPath id="SVGID_4_">
			<use xlink:href="#SVGID_3_"  overflow="visible"/>
		</clipPath>
		<path clip-path="url(#SVGID_4_)" fill="#666766" d="M15.548,0c8.587,0,15.549,6.961,15.549,15.548s-6.962,15.548-15.549,15.548
			S0,24.135,0,15.548S6.961,0,15.548,0 M28.995,15.548c0-7.427-6.021-13.447-13.447-13.447c-7.426,0-13.447,6.021-13.447,13.447
			s6.021,13.446,13.447,13.446C22.975,28.994,28.995,22.975,28.995,15.548"/>
	</g>
</g>
<path fill="#666766" d="M26.366,12.647c-1.025-1.042-2.186-1.912-3.463-2.625c-1.636-0.915-3.383-1.507-5.234-1.789
	c-0.715-0.109-1.433-0.166-2.152-0.177v0c-0.698,0.013-1.395,0.071-2.09,0.176c-1.851,0.282-3.599,0.874-5.235,1.789
	c-1.277,0.714-2.437,1.583-3.463,2.625c-0.397,0.403-0.437,1.048-0.111,1.494c0.457,0.625,1.269,0.678,1.858,0.1
	c1.15-1.129,2.457-2.027,3.926-2.688c1.61-0.725,3.304-1.105,5.066-1.138c0.016,0,0.033,0,0.049,0v0c0.037,0,0.074-0.001,0.111,0
	c1.761,0.032,3.455,0.413,5.066,1.138c1.469,0.661,2.775,1.559,3.926,2.688c0.588,0.578,1.4,0.525,1.857-0.1
	C26.804,13.695,26.764,13.05,26.366,12.647"/>
<path fill="#666766" d="M22.622,15.97c-1.945-1.706-4.223-2.532-6.907-2.569c-0.301,0.02-0.71,0.027-1.114,0.076
	c-1.562,0.189-3.028,0.675-4.337,1.555c-0.594,0.399-1.152,0.861-1.681,1.344c-0.523,0.479-0.517,1.246-0.051,1.71
	c0.46,0.459,1.185,0.447,1.703-0.027c0.186-0.17,0.365-0.348,0.563-0.504c1.769-1.396,3.776-1.976,6.014-1.714
	c1.314,0.154,2.518,0.616,3.588,1.397c0.365,0.267,0.703,0.567,1.045,0.863c0.494,0.429,1.17,0.436,1.639,0.006
	c0.443-0.407,0.486-1.112,0.079-1.61C23.005,16.302,22.811,16.136,22.622,15.97"/>
<path fill="#666766" d="M19.284,19.432c-1.094-0.865-2.336-1.282-3.738-1.211c-1.418,0.072-2.628,0.608-3.627,1.613
	c-0.313,0.314-0.414,0.703-0.288,1.127c0.135,0.455,0.442,0.746,0.917,0.84c0.488,0.098,0.85-0.131,1.198-0.439
	c0.785-0.697,1.703-0.918,2.729-0.723c0.659,0.125,1.175,0.498,1.671,0.924c0.365,0.314,0.798,0.344,1.229,0.145
	c0.437-0.201,0.641-0.572,0.687-1.049c-0.014-0.09-0.023-0.186-0.043-0.28C19.93,19.943,19.602,19.684,19.284,19.432"/>
<path fill="#666766" d="M15.813,22.721c-0.71,0.001-1.285,0.573-1.291,1.285c-0.006,0.696,0.582,1.287,1.289,1.296
	c0.695,0.009,1.3-0.587,1.303-1.282C17.116,23.301,16.535,22.72,15.813,22.721"/>
</svg>
