<?xml version="1.0" encoding="utf-8"?>
<!-- Generator: Adobe Illustrator 16.0.0, SVG Export Plug-In . SVG Version: 6.00 Build 0)  -->
<!DOCTYPE svg PUBLIC "-//W3C//DTD SVG 1.1//EN" "http://www.w3.org/Graphics/SVG/1.1/DTD/svg11.dtd">
<svg version="1.1" id="Layer_1" xmlns="http://www.w3.org/2000/svg" xmlns:xlink="http://www.w3.org/1999/xlink" x="0px" y="0px"
	 width="31.097px" height="31.096px" viewBox="0 0 31.097 31.096" enable-background="new 0 0 31.097 31.096" xml:space="preserve">
<g>
	<defs>
		<rect id="SVGID_1_" width="31.097" height="31.096"/>
	</defs>
	<clipPath id="SVGID_2_">
		<use xlink:href="#SVGID_1_"  overflow="visible"/>
	</clipPath>
	<g clip-path="url(#SVGID_2_)">
		<defs>
			<rect id="SVGID_3_" width="31.097" height="31.096"/>
		</defs>
		<clipPath id="SVGID_4_">
			<use xlink:href="#SVGID_3_"  overflow="visible"/>
		</clipPath>
		<path clip-path="url(#SVGID_4_)" fill="#666766" d="M15.548,0c8.588,0,15.549,6.961,15.549,15.548s-6.961,15.548-15.549,15.548
			c-8.586,0-15.547-6.961-15.547-15.548S6.962,0,15.548,0 M28.996,15.548c0-7.427-6.02-13.447-13.447-13.447
			c-7.426,0-13.447,6.021-13.447,13.447s6.021,13.446,13.447,13.446C22.976,28.994,28.996,22.975,28.996,15.548"/>
	</g>
</g>
<path fill="#666766" d="M24.306,16.279c-0.076,2.712-1.107,4.98-3.191,6.737c-1.107,0.935-2.395,1.534-3.813,1.833
	c-0.984,0.207-1.979,0.242-2.973,0.09c-2.222-0.34-4.075-1.354-5.516-3.08c-1.012-1.213-1.659-2.609-1.903-4.174
	c-0.39-2.497,0.188-4.76,1.717-6.773c0.479-0.631,1.05-1.172,1.688-1.641c0.801-0.587,2.052-0.255,2.284,0.921
	c0.108,0.551-0.071,1.04-0.522,1.392c-0.584,0.457-1.096,0.977-1.486,1.609c-0.691,1.117-0.981,2.332-0.853,3.638
	c0.24,2.42,1.906,4.426,4.242,5.061c1.958,0.533,3.744,0.127,5.31-1.152c1.152-0.943,1.842-2.186,2.027-3.66
	c0.277-2.214-0.48-4.039-2.232-5.424c-0.584-0.461-0.721-1.161-0.551-1.664c0.318-0.947,1.443-1.311,2.244-0.713
	c1.744,1.304,2.848,3.026,3.324,5.149C24.24,15.035,24.294,15.653,24.306,16.279"/>
<path fill="#666766" d="M14.088,11.165c0-1.22-0.003-2.439,0-3.66c0.002-0.667,0.489-1.262,1.138-1.408
	c0.889-0.2,1.771,0.488,1.773,1.397c0.006,2.45,0.006,4.899,0.002,7.349c-0.002,0.781-0.674,1.434-1.457,1.434
	c-0.784,0.001-1.452-0.649-1.456-1.432C14.084,13.618,14.088,12.392,14.088,11.165"/>
</svg>
