<?xml version="1.0" encoding="utf-8"?>
<!-- Generator: Adobe Illustrator 16.0.0, SVG Export Plug-In . SVG Version: 6.00 Build 0)  -->
<!DOCTYPE svg PUBLIC "-//W3C//DTD SVG 1.1//EN" "http://www.w3.org/Graphics/SVG/1.1/DTD/svg11.dtd">
<svg version="1.1" id="Layer_1" xmlns="http://www.w3.org/2000/svg" xmlns:xlink="http://www.w3.org/1999/xlink" x="0px" y="0px"
	 width="31.096px" height="31.096px" viewBox="0 0 31.096 31.096" enable-background="new 0 0 31.096 31.096" xml:space="preserve">
<path fill="#666766" d="M15.548,0c8.587,0,15.548,6.961,15.548,15.548s-6.961,15.548-15.548,15.548C6.962,31.096,0,24.135,0,15.548
	S6.962,0,15.548,0 M28.995,15.548c0-7.427-6.02-13.447-13.447-13.447c-7.426,0-13.446,6.021-13.446,13.447
	s6.021,13.446,13.446,13.446C22.975,28.994,28.995,22.975,28.995,15.548"/>
<path fill="#666766" d="M18.36,9.342c0.328,0.082,0.686-0.061,0.855-0.37l0.074-0.136c0.205-0.369,0.068-0.837-0.299-1.04
	l-3.416-1.885c-0.369-0.204-0.837-0.068-1.041,0.3L14.46,6.347c-0.165,0.299-0.105,0.66,0.118,0.896
	c-0.599,0.478-2.415,1.742-4.789,1.634c0,0,1.329,7.119-0.186,10.784l0.445,0.264l3.475-6.624c-0.325-0.258-0.52-0.675-0.464-1.134
	c0.068-0.556,0.518-1.01,1.074-1.081c0.802-0.103,1.479,0.557,1.408,1.354c-0.04,0.438-0.327,0.82-0.724,1.01
	c-0.299,0.144-0.577,0.146-0.829,0.083l-3.478,6.646l0.498,0.299c0,0,3.003-4.548,8.622-6.221
	C19.631,14.255,18.182,11.355,18.36,9.342z"/>
<path fill="#666766" d="M22.827,12.509h-2.762c0.18,0.389,0.371,0.773,0.57,1.153h2.191c0.23,0,0.42,0.188,0.42,0.42V21.6
	c0,0.232-0.189,0.421-0.42,0.421H7.958c-0.231,0-0.42-0.188-0.42-0.421v-7.517c0-0.232,0.188-0.42,0.42-0.42h1.161
	c-0.01-0.046-0.021-0.093-0.03-0.14c-0.076-0.337-0.168-0.673-0.232-1.013H7.958c-0.867,0-1.573,0.706-1.573,1.573V21.6
	c0,0.868,0.706,1.574,1.573,1.574h14.869c0.867,0,1.572-0.706,1.572-1.574v-7.517C24.399,13.215,23.694,12.509,22.827,12.509z"/>
<path fill="#666766" d="M21.542,19.043h-8.033c-0.367,0.374-0.727,0.755-1.067,1.152h9.1c0.318,0,0.576-0.258,0.576-0.576
	S21.86,19.043,21.542,19.043z"/>
<path fill="#666766" d="M21.542,16.896h-5.607c-0.5,0.371-0.99,0.755-1.466,1.153h7.074c0.318,0,0.576-0.258,0.576-0.576
	S21.86,16.896,21.542,16.896z"/>
</svg>
