<?xml version="1.0" encoding="utf-8"?>
<!-- Generator: Adobe Illustrator 16.0.0, SVG Export Plug-In . SVG Version: 6.00 Build 0)  -->
<!DOCTYPE svg PUBLIC "-//W3C//DTD SVG 1.1//EN" "http://www.w3.org/Graphics/SVG/1.1/DTD/svg11.dtd">
<svg version="1.1" id="Layer_1" xmlns="http://www.w3.org/2000/svg" xmlns:xlink="http://www.w3.org/1999/xlink" x="0px" y="0px"
	 width="31.095px" height="31.096px" viewBox="0 0 31.095 31.096" enable-background="new 0 0 31.095 31.096" xml:space="preserve">
<g>
	<defs>
		<rect id="SVGID_1_" width="31.095" height="31.096"/>
	</defs>
	<clipPath id="SVGID_2_">
		<use xlink:href="#SVGID_1_"  overflow="visible"/>
	</clipPath>
	<g clip-path="url(#SVGID_2_)">
		<defs>
			<rect id="SVGID_3_" width="31.095" height="31.096"/>
		</defs>
		<clipPath id="SVGID_4_">
			<use xlink:href="#SVGID_3_"  overflow="visible"/>
		</clipPath>
		<path clip-path="url(#SVGID_4_)" fill="#666766" d="M15.548,0c8.586,0,15.547,6.961,15.547,15.548s-6.961,15.548-15.547,15.548
			c-8.587,0-15.549-6.961-15.549-15.548S6.961,0,15.548,0 M28.994,15.548c0-7.427-6.02-13.447-13.446-13.447
			c-7.427,0-13.447,6.021-13.447,13.447s6.021,13.446,13.447,13.446C22.974,28.994,28.994,22.975,28.994,15.548"/>
	</g>
</g>
<path fill="#666766" d="M12.221,7.575v0.217c0,1.889,0,3.779-0.002,5.668c0,0.151,0.018,0.291,0.16,0.373
	c0.152,0.088,0.291,0.056,0.425-0.058c0.462-0.396,0.927-0.786,1.404-1.19c0.063,0.049,0.123,0.094,0.181,0.142
	c0.405,0.341,0.813,0.681,1.214,1.028c0.129,0.112,0.262,0.168,0.422,0.094c0.156-0.072,0.189-0.216,0.189-0.374
	c0-1.419,0-2.837,0-4.256V7.565h0.199c1.461,0,2.922,0,4.381,0c0.854,0,1.406,0.557,1.406,1.413c0,3.374,0,6.747,0,10.12
	c0,0.89-0.547,1.441-1.436,1.442c-3.135,0-6.269,0-9.405,0.002c-0.118,0-0.241,0.003-0.353,0.037
	c-0.297,0.09-0.481,0.389-0.447,0.692c0.037,0.325,0.281,0.563,0.613,0.597c0.071,0.008,0.143,0.004,0.215,0.004
	c3.302,0,6.603,0,9.906,0.001c0.463,0,0.775,0.225,0.881,0.628c0.129,0.496-0.234,0.996-0.744,1.026
	c-0.049,0.003-0.096,0.003-0.145,0.003c-3.664,0-7.33,0-10.996,0c-0.721,0-1.25-0.424-1.378-1.101
	c-0.018-0.093-0.019-0.189-0.019-0.284c-0.001-4.393-0.002-8.786-0.001-13.179c0-0.843,0.556-1.399,1.398-1.402
	c0.584-0.002,1.168,0,1.753,0C12.097,7.565,12.148,7.571,12.221,7.575"/>
</svg>
