<?xml version="1.0" encoding="utf-8"?>
<!-- Generator: Adobe Illustrator 16.0.0, SVG Export Plug-In . SVG Version: 6.00 Build 0)  -->
<!DOCTYPE svg PUBLIC "-//W3C//DTD SVG 1.1//EN" "http://www.w3.org/Graphics/SVG/1.1/DTD/svg11.dtd">
<svg version="1.1" id="Layer_1" xmlns="http://www.w3.org/2000/svg" xmlns:xlink="http://www.w3.org/1999/xlink" x="0px" y="0px"
	 width="31.097px" height="31.096px" viewBox="0 0 31.097 31.096" enable-background="new 0 0 31.097 31.096" xml:space="preserve">
<g>
	<defs>
		<rect id="SVGID_1_" width="31.097" height="31.096"/>
	</defs>
	<clipPath id="SVGID_2_">
		<use xlink:href="#SVGID_1_"  overflow="visible"/>
	</clipPath>
	<g clip-path="url(#SVGID_2_)">
		<defs>
			<rect id="SVGID_3_" width="31.097" height="31.096"/>
		</defs>
		<clipPath id="SVGID_4_">
			<use xlink:href="#SVGID_3_"  overflow="visible"/>
		</clipPath>
		<path clip-path="url(#SVGID_4_)" fill="#666766" d="M15.548,0c8.586,0,15.547,6.961,15.547,15.548s-6.961,15.548-15.547,15.548
			C6.961,31.096,0,24.135,0,15.548S6.961,0,15.548,0 M28.994,15.548c0-7.427-6.02-13.447-13.446-13.447
			c-7.427,0-13.447,6.021-13.447,13.447s6.021,13.446,13.447,13.446C22.974,28.994,28.994,22.975,28.994,15.548"/>
	</g>
</g>
<path fill="#666766" d="M10.115,15.18c-0.02-0.041-0.039-0.083-0.058-0.123c-0.679-1.486-0.745-2.657-0.535-3.551
	c0.404-1.74,1.849-2.446,1.849-2.446c-0.053-0.116-0.16-0.184-0.28-0.224c-0.249-0.084-0.559-0.048-0.559-0.048
	c0.411-0.262,0.825-0.365,1.186-0.391c0.62-0.046,1.081,0.139,1.081,0.139c-0.122-0.198-0.313-0.336-0.521-0.431
	c-0.506-0.234-1.121-0.219-1.121-0.219c0.994-0.365,1.799-0.321,2.374-0.175c0.653,0.169,1.009,0.473,1.009,0.473
	c-0.013-0.197-0.148-0.386-0.322-0.551c-0.336-0.318-0.813-0.544-0.813-0.544c0.408-0.012,0.79-0.003,1.15,0.025
	c0.032,0.002,0.063,0.005,0.096,0.007c2.983,0.255,4.254,1.779,4.754,3.349c0.592,1.845,0.121,3.754,0.121,3.754
	c-0.066,0.266-0.137,0.495-0.209,0.691c0.014-0.004,0.025-0.005,0.037-0.005H19.4c0.002,0,0.002,0.005,0.004,0.005
	c0.01,0,0.02,0.003,0.029,0.007c0.008,0.004,0.02,0.009,0.035,0.016c0.002,0.001,0.004,0.003,0.006,0.003
	c0.006,0.006,0.014,0.009,0.023,0.013c0,0,0-0.001,0.002-0.001c0,0.001,0.004,0.001,0.004,0.001
	c0.199,0.142,0.305,0.592,0.221,1.104c-0.148,0.866-1.119,1.098-1.119,1.098s-0.184,0.555-0.576,1.228
	c-1.736,0.44-3.025,2.016-3.025,3.887c0,0.46,0.078,0.903,0.223,1.315c-0.195,0.016-0.394,0.023-0.592,0.023
	c-0.809,0-1.594-0.125-2.327-0.355h-0.001c-0.63-0.199-1.225-0.474-1.773-0.816h-0.001c-0.385-0.242-0.747-0.516-1.083-0.818
	c-0.064-0.058-0.125-0.114-0.187-0.172c0.168-0.236,0.336-0.451,0.504-0.646c0.276-0.323,0.549-0.593,0.799-0.817
	c0.496-0.443,0.907-0.702,1.105-0.813c-0.042-0.056-0.084-0.11-0.123-0.165l-0.033-0.047l-0.033-0.043
	c-0.045-0.066-0.09-0.125-0.124-0.186c-0.002,0-0.002-0.001-0.002-0.001c-0.541-0.817-0.793-1.573-0.793-1.573
	s-0.97-0.232-1.115-1.098c-0.09-0.518-0.043-0.961,0.229-1.105c0.097-0.042,0.18-0.019,0.216-0.009
	c0.046,0.017,0.1,0.05,0.152,0.101c0.002,0.003,0.008,0.007,0.011,0.012C10.075,15.097,10.096,15.139,10.115,15.18 M18.914,15.171
	v-0.003h-0.006C18.908,15.168,18.91,15.168,18.914,15.171"/>
<path fill="#FFFFFF" d="M20.783,21.73h-1.088h-0.141v-0.869v-0.359c0-0.293-0.24-0.533-0.535-0.533h-0.012
	c-0.09,0-0.176,0.021-0.252,0.062c-0.166,0.09-0.283,0.269-0.283,0.472v1.229h-1.227c-0.293,0-0.533,0.24-0.533,0.533v0.014
	c0,0.295,0.24,0.535,0.533,0.535h0.818h0.408v1.227c0,0.294,0.24,0.534,0.535,0.534h0.012c0.295,0,0.535-0.24,0.535-0.534v-1.227
	h1.229c0.293,0,0.533-0.24,0.533-0.535v-0.014C21.316,21.971,21.076,21.73,20.783,21.73"/>
<path fill="#666766" d="M19.013,18.984c-0.455,0-0.889,0.092-1.285,0.262c-1.174,0.5-2,1.668-2,3.024
	c0,0.433,0.084,0.847,0.237,1.225c0.486,1.208,1.67,2.062,3.049,2.062c1.813,0,3.287-1.475,3.287-3.286S20.826,18.984,19.013,18.984
	 M21.316,22.277c0,0.295-0.24,0.535-0.533,0.535h-1.229v1.227c0,0.294-0.24,0.534-0.535,0.534h-0.012
	c-0.295,0-0.535-0.24-0.535-0.534v-1.227h-0.408h-0.818c-0.293,0-0.533-0.24-0.533-0.535v-0.014c0-0.293,0.24-0.533,0.533-0.533
	h1.227v-1.229c0-0.203,0.115-0.382,0.283-0.472c0.076-0.04,0.162-0.062,0.252-0.062h0.012c0.295,0,0.535,0.24,0.535,0.533v0.359
	v0.869h0.141h1.088c0.293,0,0.533,0.24,0.533,0.533V22.277z"/>
</svg>
