<?xml version="1.0" encoding="utf-8"?>
<!-- Generator: Adobe Illustrator 16.0.0, SVG Export Plug-In . SVG Version: 6.00 Build 0)  -->
<!DOCTYPE svg PUBLIC "-//W3C//DTD SVG 1.1//EN" "http://www.w3.org/Graphics/SVG/1.1/DTD/svg11.dtd">
<svg version="1.1" id="Layer_1" xmlns="http://www.w3.org/2000/svg" xmlns:xlink="http://www.w3.org/1999/xlink" x="0px" y="0px"
	 width="31.096px" height="31.096px" viewBox="0 0 31.096 31.096" enable-background="new 0 0 31.096 31.096" xml:space="preserve">
<g>
	<defs>
		<rect id="SVGID_1_" width="31.096" height="31.096"/>
	</defs>
	<clipPath id="SVGID_2_">
		<use xlink:href="#SVGID_1_"  overflow="visible"/>
	</clipPath>
	<g clip-path="url(#SVGID_2_)">
		<defs>
			<rect id="SVGID_3_" width="31.096" height="31.096"/>
		</defs>
		<clipPath id="SVGID_4_">
			<use xlink:href="#SVGID_3_"  overflow="visible"/>
		</clipPath>
		<path clip-path="url(#SVGID_4_)" fill="#666766" d="M15.548,0c8.586,0,15.547,6.961,15.547,15.548s-6.961,15.548-15.547,15.548
			C6.961,31.096,0,24.135,0,15.548S6.961,0,15.548,0 M28.995,15.548c0-7.427-6.021-13.447-13.447-13.447
			c-7.427,0-13.447,6.021-13.447,13.447s6.021,13.446,13.447,13.446C22.975,28.994,28.995,22.975,28.995,15.548"/>
	</g>
</g>
<path fill="#666766" d="M21.55,22.271L21.55,22.271c-0.341-0.397-0.675-0.732-0.985-1.008c-0.613-0.549-1.124-0.867-1.365-1.006
	c-0.035-0.02-0.063-0.035-0.086-0.046c-0.01,0.015-0.01,0.015,0-0.001c0.055-0.07,0.105-0.14,0.154-0.21
	c0.021-0.026,0.047-0.06,0.066-0.091c0.025-0.039,0.051-0.076,0.077-0.115c0.021-0.029,0.04-0.059,0.06-0.089
	c0.664-1.004,0.969-1.928,0.969-1.928s1.197-0.287,1.382-1.354c0.103-0.63-0.027-1.186-0.273-1.36c0,0-0.003,0-0.003-0.002
	c-0.004,0-0.004,0.002-0.004,0.002c-0.012-0.005-0.021-0.01-0.029-0.016c-0.004,0-0.006-0.002-0.008-0.004
	c-0.019-0.01-0.033-0.015-0.041-0.02c-0.014-0.005-0.025-0.008-0.037-0.008c-0.003,0-0.003-0.008-0.006-0.008h-0.057
	c-0.015,0-0.029,0.002-0.046,0.007c0.087-0.243,0.175-0.524,0.257-0.852c0,0,0.58-2.354-0.146-4.627
	c-0.619-1.937-2.185-3.815-5.863-4.127c-0.041-0.003-0.079-0.006-0.119-0.009c-0.443-0.034-0.914-0.044-1.417-0.031
	c0,0,0.589,0.278,1.004,0.671c0.213,0.203,0.38,0.437,0.396,0.679c0,0-0.438-0.375-1.243-0.582
	c-0.709-0.182-1.701-0.235-2.927,0.215c0,0,0.758-0.019,1.383,0.269c0.257,0.119,0.493,0.289,0.643,0.532
	c0,0-0.568-0.228-1.333-0.171c-0.443,0.034-0.954,0.16-1.461,0.483c0,0,0.382-0.046,0.689,0.058c0.148,0.05,0.28,0.135,0.346,0.276
	c0,0-1.78,0.871-2.28,3.015c-0.258,1.103-0.176,2.545,0.661,4.377c0.044,0.1,0.096,0.202,0.146,0.305
	c-0.049-0.103-0.102-0.206-0.147-0.305C9.9,15.185,9.893,15.18,9.89,15.176c-0.064-0.063-0.13-0.103-0.188-0.125
	c-0.045-0.012-0.146-0.042-0.265,0.01c-0.335,0.179-0.395,0.725-0.284,1.362c0.179,1.067,1.375,1.354,1.375,1.354
	s0.309,0.931,0.977,1.939c0,0,0,0.002,0.002,0.002c0.043,0.075,0.098,0.146,0.153,0.228l0.041,0.054l0.041,0.058
	c0.049,0.066,0.1,0.135,0.152,0.202c-0.244,0.139-0.751,0.458-1.363,1.003c-0.308,0.275-0.644,0.61-0.985,1.008
	c-0.206,0.24-0.414,0.504-0.62,0.795c0.075,0.072,0.15,0.143,0.229,0.213c0.414,0.373,0.86,0.71,1.335,1.008h0.001
	c0.676,0.422,1.41,0.763,2.186,1.006h0.001c0.905,0.286,1.872,0.439,2.869,0.439c0.999,0,1.964-0.153,2.872-0.439
	c0.776-0.243,1.51-0.584,2.186-1.006c0.475-0.298,0.923-0.635,1.336-1.008c0.078-0.07,0.154-0.141,0.229-0.213
	C21.965,22.775,21.756,22.512,21.55,22.271 M20.821,15.327v0.004c-0.006-0.004-0.009-0.004-0.009-0.004H20.821z"/>
</svg>
