<?xml version="1.0" encoding="utf-8"?>
<!-- Generator: Adobe Illustrator 16.0.0, SVG Export Plug-In . SVG Version: 6.00 Build 0)  -->
<!DOCTYPE svg PUBLIC "-//W3C//DTD SVG 1.1//EN" "http://www.w3.org/Graphics/SVG/1.1/DTD/svg11.dtd">
<svg version="1.1" id="Layer_1" xmlns="http://www.w3.org/2000/svg" xmlns:xlink="http://www.w3.org/1999/xlink" x="0px" y="0px"
	 width="31.096px" height="31.096px" viewBox="0 0 31.096 31.096" enable-background="new 0 0 31.096 31.096" xml:space="preserve">
<g>
	<defs>
		<rect id="SVGID_1_" width="31.096" height="31.096"/>
	</defs>
	<clipPath id="SVGID_2_">
		<use xlink:href="#SVGID_1_"  overflow="visible"/>
	</clipPath>
	<g clip-path="url(#SVGID_2_)">
		<defs>
			<rect id="SVGID_3_" width="31.096" height="31.096"/>
		</defs>
		<clipPath id="SVGID_4_">
			<use xlink:href="#SVGID_3_"  overflow="visible"/>
		</clipPath>
		<path clip-path="url(#SVGID_4_)" fill="#666766" d="M15.548,0c8.587,0,15.548,6.961,15.548,15.548s-6.961,15.548-15.548,15.548
			C6.961,31.096,0,24.135,0,15.548S6.961,0,15.548,0 M28.995,15.548c0-7.427-6.02-13.447-13.447-13.447
			c-7.426,0-13.446,6.021-13.446,13.447s6.021,13.446,13.446,13.446C22.975,28.994,28.995,22.975,28.995,15.548"/>
	</g>
</g>
<polygon fill="#666766" points="7.25,17.62 8.13,14.955 9.249,12.267 11.141,12.267 11.141,12.529 7.595,20.666 6.857,20.666 
	3.276,12.529 3.276,12.267 5.168,12.267 6.286,14.943 7.214,17.62 "/>
<path fill="#666766" d="M12.191,20.582v-8.327c1.189-0.012,2.367,0,3.557,0c1.939,0,2.963,1.463,2.963,3.034
	c0,1.546-1.061,2.938-2.963,2.938h-1.773v2.355H12.191z M15.749,16.704c0.762,0,1.262-0.666,1.262-1.463
	c0-0.774-0.477-1.428-1.262-1.428c-0.607-0.012-1.202,0-1.808,0v2.891H15.749z"/>
<polygon fill="#666766" points="21.749,15.836 21.749,20.594 19.977,20.594 19.977,12.231 20.536,12.231 25.211,16.99 
	25.211,12.267 26.995,12.267 26.995,20.618 26.459,20.618 "/>
</svg>
