<?xml version="1.0" encoding="utf-8"?>
<!-- Generator: Adobe Illustrator 16.0.0, SVG Export Plug-In . SVG Version: 6.00 Build 0)  -->
<!DOCTYPE svg PUBLIC "-//W3C//DTD SVG 1.1//EN" "http://www.w3.org/Graphics/SVG/1.1/DTD/svg11.dtd">
<svg version="1.1" id="Layer_1" xmlns="http://www.w3.org/2000/svg" xmlns:xlink="http://www.w3.org/1999/xlink" x="0px" y="0px"
	 width="31.095px" height="31.096px" viewBox="0 0 31.095 31.096" enable-background="new 0 0 31.095 31.096" xml:space="preserve">
<g>
	<path fill="#666766" d="M15.548,0c8.586,0,15.547,6.961,15.547,15.548c0,8.586-6.961,15.547-15.547,15.547
		C6.961,31.096,0,24.135,0,15.548C0,6.961,6.961,0,15.548,0 M28.994,15.548c0-7.427-6.02-13.447-13.445-13.447
		c-7.427,0-13.448,6.021-13.448,13.447c0,7.426,6.021,13.447,13.448,13.447C22.974,28.995,28.994,22.975,28.994,15.548"/>
	<path fill="#666766" d="M11.692,21.598c0.448-0.449,0.888-0.889,1.334-1.334c2.352,1.322,4.686,0.547,5.995-0.762
		c1.291-1.291,2.092-3.623,0.762-5.99c0.611-0.61,1.213-1.212,1.834-1.833c0.859,0.594,1.648,1.315,2.309,2.164
		c0.443,0.568,0.822,1.185,1.223,1.785c0.178,0.266,0.164,0.535,0.002,0.814c-1.779,3.045-4.311,5.08-7.818,5.768
		C15.39,22.588,13.502,22.34,11.692,21.598z"/>
	<path fill="#666766" d="M19.417,10.481c-0.447,0.444-0.881,0.877-1.336,1.332c-1.129-0.643-2.352-0.875-3.657-0.568
		c-0.978,0.23-1.807,0.717-2.488,1.45c-1.278,1.377-1.871,3.635-0.635,5.829c-0.607,0.605-1.209,1.203-1.853,1.844
		c-0.29-0.234-0.642-0.502-0.974-0.791c-1.025-0.896-1.858-1.948-2.531-3.131c-0.158-0.278-0.173-0.534-0.009-0.814
		c1.783-3.059,4.333-5.083,7.847-5.79C15.603,9.475,18.015,9.762,19.417,10.481z"/>
	<path fill="#666766" d="M18.437,16.039c-0.004,1.59-1.311,2.886-2.904,2.881c-1.591-0.004-2.883-1.307-2.879-2.903
		c0.004-1.593,1.305-2.884,2.903-2.88C17.148,13.14,18.441,14.443,18.437,16.039z"/>
</g>
</svg>
