<?xml version="1.0" encoding="utf-8"?>
<!-- Generator: Adobe Illustrator 16.0.0, SVG Export Plug-In . SVG Version: 6.00 Build 0)  -->
<!DOCTYPE svg PUBLIC "-//W3C//DTD SVG 1.1//EN" "http://www.w3.org/Graphics/SVG/1.1/DTD/svg11.dtd">
<svg version="1.1" id="Layer_1" xmlns="http://www.w3.org/2000/svg" xmlns:xlink="http://www.w3.org/1999/xlink" x="0px" y="0px"
	 width="31.097px" height="31.096px" viewBox="0 0 31.097 31.096" enable-background="new 0 0 31.097 31.096" xml:space="preserve">
<path fill="#666766" d="M15.548,0c8.586,0,15.549,6.961,15.549,15.548c0,8.586-6.963,15.547-15.549,15.547
	C6.961,31.096,0,24.135,0,15.548C0,6.961,6.961,0,15.548,0 M28.996,15.548c0-7.427-6.021-13.447-13.448-13.447
	c-7.427,0-13.446,6.021-13.446,13.447c0,7.426,6.02,13.447,13.446,13.447C22.974,28.995,28.996,22.975,28.996,15.548"/>
<path fill="#666766" d="M20.32,12.807h-7.908c0-0.439,0-0.819,0-1.198c0-2.163,1.573-3.508,3.712-3.177
	c0.541,0.083,0.922-0.134,1.012-0.58c0.092-0.444-0.184-0.802-0.711-0.927c-2.318-0.548-4.8,0.905-5.378,3.237
	c-0.196,0.794-0.161,1.65-0.195,2.479c-0.003,0.06-0.008,0.115-0.018,0.166h-0.048c-0.751,0-1.366,0.615-1.366,1.367v3.979
	c-0.005,0.861-0.01,1.722-0.009,2.582c0,0.082,0.003,0.162,0.009,0.241v0.937c0,0.752,0.615,1.367,1.366,1.367h9.534
	c0.75,0,1.365-0.615,1.365-1.367v-7.738C21.685,13.422,21.07,12.807,20.32,12.807z M16.234,18.111v1.673
	c0,0.376-0.309,0.685-0.686,0.685l0,0c-0.377,0-0.685-0.309-0.685-0.685v-1.673c-0.438-0.241-0.732-0.707-0.732-1.241
	c0-0.783,0.635-1.418,1.417-1.418c0.784,0,1.418,0.635,1.418,1.418C16.966,17.404,16.669,17.87,16.234,18.111z"/>
</svg>
